<mxfile host="app.diagrams.net" agent="Mozilla/5.0 (Windows NT 10.0; Win64; x64) AppleWebKit/537.36 (KHTML, like Gecko) Chrome/135.0.0.0 Safari/537.36" version="26.2.9">
  <diagram id="6q0T-2hke3kP5Qlv8fY4" name="arch">
    <mxGraphModel dx="2433" dy="1305" grid="1" gridSize="10" guides="1" tooltips="1" connect="1" arrows="1" fold="1" page="1" pageScale="1" pageWidth="4681" pageHeight="3300" math="0" shadow="0">
      <root>
        <mxCell id="0" />
        <mxCell id="1" parent="0" />
        <mxCell id="Kp5qe-awLr9j9oZQAhEf-67" value="" style="rounded=0;whiteSpace=wrap;html=1;fillColor=#f8cecc;strokeColor=#b85450;" vertex="1" parent="1">
          <mxGeometry x="800" y="800" width="800" height="120" as="geometry" />
        </mxCell>
        <mxCell id="Kp5qe-awLr9j9oZQAhEf-66" value="" style="rounded=0;whiteSpace=wrap;html=1;fillColor=#e1d5e7;strokeColor=#9673a6;" vertex="1" parent="1">
          <mxGeometry x="1640" y="40" width="200" height="720" as="geometry" />
        </mxCell>
        <mxCell id="Kp5qe-awLr9j9oZQAhEf-65" value="" style="rounded=0;whiteSpace=wrap;html=1;fillColor=#dae8fc;strokeColor=#6c8ebf;" vertex="1" parent="1">
          <mxGeometry x="800" y="40" width="800" height="720" as="geometry" />
        </mxCell>
        <mxCell id="Kp5qe-awLr9j9oZQAhEf-64" value="" style="rounded=0;whiteSpace=wrap;html=1;fillColor=#d5e8d4;strokeColor=#82b366;" vertex="1" parent="1">
          <mxGeometry x="280" y="40" width="480" height="720" as="geometry" />
        </mxCell>
        <mxCell id="Kp5qe-awLr9j9oZQAhEf-24" style="edgeStyle=orthogonalEdgeStyle;rounded=0;orthogonalLoop=1;jettySize=auto;html=1;exitX=1;exitY=0.5;exitDx=0;exitDy=0;entryX=0;entryY=0.5;entryDx=0;entryDy=0;" edge="1" parent="1" source="Kp5qe-awLr9j9oZQAhEf-1" target="Kp5qe-awLr9j9oZQAhEf-10">
          <mxGeometry relative="1" as="geometry" />
        </mxCell>
        <mxCell id="Kp5qe-awLr9j9oZQAhEf-1" value="Страница входа" style="rounded=0;whiteSpace=wrap;html=1;" vertex="1" parent="1">
          <mxGeometry x="320" y="160" width="120" height="40" as="geometry" />
        </mxCell>
        <mxCell id="Kp5qe-awLr9j9oZQAhEf-23" style="edgeStyle=orthogonalEdgeStyle;rounded=0;orthogonalLoop=1;jettySize=auto;html=1;exitX=1;exitY=0.5;exitDx=0;exitDy=0;entryX=0;entryY=0.25;entryDx=0;entryDy=0;" edge="1" parent="1" source="Kp5qe-awLr9j9oZQAhEf-2" target="Kp5qe-awLr9j9oZQAhEf-10">
          <mxGeometry relative="1" as="geometry" />
        </mxCell>
        <mxCell id="Kp5qe-awLr9j9oZQAhEf-2" value="Страница выхода" style="rounded=0;whiteSpace=wrap;html=1;" vertex="1" parent="1">
          <mxGeometry x="320" y="110" width="120" height="40" as="geometry" />
        </mxCell>
        <mxCell id="Kp5qe-awLr9j9oZQAhEf-32" style="edgeStyle=orthogonalEdgeStyle;rounded=0;orthogonalLoop=1;jettySize=auto;html=1;entryX=0;entryY=0.75;entryDx=0;entryDy=0;" edge="1" parent="1" source="Kp5qe-awLr9j9oZQAhEf-3" target="Kp5qe-awLr9j9oZQAhEf-8">
          <mxGeometry relative="1" as="geometry" />
        </mxCell>
        <mxCell id="Kp5qe-awLr9j9oZQAhEf-3" value="Страница списка аккаунтов" style="rounded=0;whiteSpace=wrap;html=1;" vertex="1" parent="1">
          <mxGeometry x="320" y="550" width="120" height="40" as="geometry" />
        </mxCell>
        <mxCell id="Kp5qe-awLr9j9oZQAhEf-31" style="edgeStyle=orthogonalEdgeStyle;rounded=0;orthogonalLoop=1;jettySize=auto;html=1;entryX=0;entryY=0.25;entryDx=0;entryDy=0;" edge="1" parent="1" source="Kp5qe-awLr9j9oZQAhEf-4" target="Kp5qe-awLr9j9oZQAhEf-8">
          <mxGeometry relative="1" as="geometry" />
        </mxCell>
        <mxCell id="Kp5qe-awLr9j9oZQAhEf-33" style="edgeStyle=orthogonalEdgeStyle;rounded=0;orthogonalLoop=1;jettySize=auto;html=1;entryX=0;entryY=0.75;entryDx=0;entryDy=0;startArrow=oval;startFill=1;" edge="1" parent="1" target="Kp5qe-awLr9j9oZQAhEf-9">
          <mxGeometry relative="1" as="geometry">
            <mxPoint x="520" y="510" as="sourcePoint" />
            <Array as="points">
              <mxPoint x="520" y="410" />
            </Array>
          </mxGeometry>
        </mxCell>
        <mxCell id="Kp5qe-awLr9j9oZQAhEf-4" value="Страница аккаунта" style="rounded=0;whiteSpace=wrap;html=1;" vertex="1" parent="1">
          <mxGeometry x="320" y="490" width="120" height="40" as="geometry" />
        </mxCell>
        <mxCell id="Kp5qe-awLr9j9oZQAhEf-30" style="edgeStyle=orthogonalEdgeStyle;rounded=0;orthogonalLoop=1;jettySize=auto;html=1;entryX=0;entryY=0.5;entryDx=0;entryDy=0;" edge="1" parent="1" source="Kp5qe-awLr9j9oZQAhEf-6" target="Kp5qe-awLr9j9oZQAhEf-9">
          <mxGeometry relative="1" as="geometry" />
        </mxCell>
        <mxCell id="Kp5qe-awLr9j9oZQAhEf-6" value="Страница генератора пролей" style="rounded=0;whiteSpace=wrap;html=1;" vertex="1" parent="1">
          <mxGeometry x="320" y="360" width="120" height="40" as="geometry" />
        </mxCell>
        <mxCell id="Kp5qe-awLr9j9oZQAhEf-21" style="edgeStyle=orthogonalEdgeStyle;rounded=0;orthogonalLoop=1;jettySize=auto;html=1;entryX=0;entryY=0.5;entryDx=0;entryDy=0;" edge="1" parent="1" source="Kp5qe-awLr9j9oZQAhEf-7" target="Kp5qe-awLr9j9oZQAhEf-11">
          <mxGeometry relative="1" as="geometry" />
        </mxCell>
        <mxCell id="Kp5qe-awLr9j9oZQAhEf-7" value="Страница настроек" style="rounded=0;whiteSpace=wrap;html=1;" vertex="1" parent="1">
          <mxGeometry x="320" y="660" width="120" height="40" as="geometry" />
        </mxCell>
        <mxCell id="Kp5qe-awLr9j9oZQAhEf-49" style="edgeStyle=orthogonalEdgeStyle;rounded=0;orthogonalLoop=1;jettySize=auto;html=1;exitX=1;exitY=0.5;exitDx=0;exitDy=0;entryX=0;entryY=0.5;entryDx=0;entryDy=0;" edge="1" parent="1" source="Kp5qe-awLr9j9oZQAhEf-8" target="Kp5qe-awLr9j9oZQAhEf-41">
          <mxGeometry relative="1" as="geometry" />
        </mxCell>
        <mxCell id="Kp5qe-awLr9j9oZQAhEf-8" value="Контроллер аккаунтов" style="rounded=0;whiteSpace=wrap;html=1;" vertex="1" parent="1">
          <mxGeometry x="600" y="480" width="120" height="120" as="geometry" />
        </mxCell>
        <mxCell id="Kp5qe-awLr9j9oZQAhEf-48" style="edgeStyle=orthogonalEdgeStyle;rounded=0;orthogonalLoop=1;jettySize=auto;html=1;entryX=0;entryY=0.5;entryDx=0;entryDy=0;" edge="1" parent="1" source="Kp5qe-awLr9j9oZQAhEf-9" target="Kp5qe-awLr9j9oZQAhEf-39">
          <mxGeometry relative="1" as="geometry" />
        </mxCell>
        <mxCell id="Kp5qe-awLr9j9oZQAhEf-9" value="Контроллер паролей" style="rounded=0;whiteSpace=wrap;html=1;" vertex="1" parent="1">
          <mxGeometry x="600" y="320" width="120" height="120" as="geometry" />
        </mxCell>
        <mxCell id="Kp5qe-awLr9j9oZQAhEf-56" style="edgeStyle=orthogonalEdgeStyle;rounded=0;orthogonalLoop=1;jettySize=auto;html=1;exitX=1;exitY=0.5;exitDx=0;exitDy=0;entryX=0;entryY=0.25;entryDx=0;entryDy=0;" edge="1" parent="1" source="Kp5qe-awLr9j9oZQAhEf-10" target="Kp5qe-awLr9j9oZQAhEf-42">
          <mxGeometry relative="1" as="geometry" />
        </mxCell>
        <mxCell id="Kp5qe-awLr9j9oZQAhEf-10" value="Контроллер аутентификации" style="rounded=0;whiteSpace=wrap;html=1;" vertex="1" parent="1">
          <mxGeometry x="600" y="80" width="120" height="200" as="geometry" />
        </mxCell>
        <mxCell id="Kp5qe-awLr9j9oZQAhEf-59" style="edgeStyle=orthogonalEdgeStyle;rounded=0;orthogonalLoop=1;jettySize=auto;html=1;exitX=1;exitY=0.5;exitDx=0;exitDy=0;entryX=0;entryY=0.5;entryDx=0;entryDy=0;" edge="1" parent="1" source="Kp5qe-awLr9j9oZQAhEf-11" target="Kp5qe-awLr9j9oZQAhEf-42">
          <mxGeometry relative="1" as="geometry">
            <Array as="points">
              <mxPoint x="1360" y="680" />
              <mxPoint x="1360" y="260" />
            </Array>
          </mxGeometry>
        </mxCell>
        <mxCell id="Kp5qe-awLr9j9oZQAhEf-11" value="Контроллер настроек" style="rounded=0;whiteSpace=wrap;html=1;" vertex="1" parent="1">
          <mxGeometry x="600" y="640" width="120" height="80" as="geometry" />
        </mxCell>
        <mxCell id="Kp5qe-awLr9j9oZQAhEf-25" style="edgeStyle=orthogonalEdgeStyle;rounded=0;orthogonalLoop=1;jettySize=auto;html=1;entryX=0;entryY=0.75;entryDx=0;entryDy=0;" edge="1" parent="1" source="Kp5qe-awLr9j9oZQAhEf-22" target="Kp5qe-awLr9j9oZQAhEf-10">
          <mxGeometry relative="1" as="geometry" />
        </mxCell>
        <mxCell id="Kp5qe-awLr9j9oZQAhEf-34" style="edgeStyle=orthogonalEdgeStyle;rounded=0;orthogonalLoop=1;jettySize=auto;html=1;entryX=0;entryY=0.25;entryDx=0;entryDy=0;startArrow=oval;startFill=1;" edge="1" parent="1" target="Kp5qe-awLr9j9oZQAhEf-9">
          <mxGeometry relative="1" as="geometry">
            <mxPoint x="520" y="230" as="sourcePoint" />
            <Array as="points">
              <mxPoint x="520" y="350" />
            </Array>
          </mxGeometry>
        </mxCell>
        <mxCell id="Kp5qe-awLr9j9oZQAhEf-22" value="Страница инициализации" style="rounded=0;whiteSpace=wrap;html=1;" vertex="1" parent="1">
          <mxGeometry x="320" y="210" width="120" height="40" as="geometry" />
        </mxCell>
        <mxCell id="Kp5qe-awLr9j9oZQAhEf-35" value="Репозиторий аккаунтов" style="rounded=0;whiteSpace=wrap;html=1;" vertex="1" parent="1">
          <mxGeometry x="1680" y="500" width="120" height="80" as="geometry" />
        </mxCell>
        <mxCell id="Kp5qe-awLr9j9oZQAhEf-36" value="Репозиторий ключа" style="rounded=0;whiteSpace=wrap;html=1;" vertex="1" parent="1">
          <mxGeometry x="1680" y="220" width="120" height="80" as="geometry" />
        </mxCell>
        <mxCell id="Kp5qe-awLr9j9oZQAhEf-37" value="Сервис проверки паролей" style="rounded=0;whiteSpace=wrap;html=1;" vertex="1" parent="1">
          <mxGeometry x="1120" y="840" width="120" height="40" as="geometry" />
        </mxCell>
        <mxCell id="Kp5qe-awLr9j9oZQAhEf-38" value="Сервис генерации паролей" style="rounded=0;whiteSpace=wrap;html=1;" vertex="1" parent="1">
          <mxGeometry x="960" y="840" width="120" height="40" as="geometry" />
        </mxCell>
        <mxCell id="Kp5qe-awLr9j9oZQAhEf-60" style="edgeStyle=orthogonalEdgeStyle;rounded=0;orthogonalLoop=1;jettySize=auto;html=1;exitX=1;exitY=0.75;exitDx=0;exitDy=0;entryX=0.5;entryY=0;entryDx=0;entryDy=0;" edge="1" parent="1" source="Kp5qe-awLr9j9oZQAhEf-39" target="Kp5qe-awLr9j9oZQAhEf-38">
          <mxGeometry relative="1" as="geometry" />
        </mxCell>
        <mxCell id="Kp5qe-awLr9j9oZQAhEf-61" style="edgeStyle=orthogonalEdgeStyle;rounded=0;orthogonalLoop=1;jettySize=auto;html=1;exitX=1;exitY=0.25;exitDx=0;exitDy=0;entryX=0.5;entryY=0;entryDx=0;entryDy=0;" edge="1" parent="1" source="Kp5qe-awLr9j9oZQAhEf-39" target="Kp5qe-awLr9j9oZQAhEf-37">
          <mxGeometry relative="1" as="geometry" />
        </mxCell>
        <mxCell id="Kp5qe-awLr9j9oZQAhEf-39" value="Сервис паролей" style="rounded=0;whiteSpace=wrap;html=1;" vertex="1" parent="1">
          <mxGeometry x="840" y="320" width="120" height="120" as="geometry" />
        </mxCell>
        <mxCell id="Kp5qe-awLr9j9oZQAhEf-40" value="Сервис шифрования данных" style="rounded=0;whiteSpace=wrap;html=1;" vertex="1" parent="1">
          <mxGeometry x="1280" y="840" width="160" height="40" as="geometry" />
        </mxCell>
        <mxCell id="Kp5qe-awLr9j9oZQAhEf-58" style="edgeStyle=orthogonalEdgeStyle;rounded=0;orthogonalLoop=1;jettySize=auto;html=1;exitX=1;exitY=0.5;exitDx=0;exitDy=0;entryX=0;entryY=0.5;entryDx=0;entryDy=0;" edge="1" parent="1" source="Kp5qe-awLr9j9oZQAhEf-41" target="Kp5qe-awLr9j9oZQAhEf-35">
          <mxGeometry relative="1" as="geometry" />
        </mxCell>
        <mxCell id="Kp5qe-awLr9j9oZQAhEf-62" style="edgeStyle=orthogonalEdgeStyle;rounded=0;orthogonalLoop=1;jettySize=auto;html=1;exitX=1;exitY=0.75;exitDx=0;exitDy=0;entryX=0.25;entryY=0;entryDx=0;entryDy=0;" edge="1" parent="1" source="Kp5qe-awLr9j9oZQAhEf-41" target="Kp5qe-awLr9j9oZQAhEf-40">
          <mxGeometry relative="1" as="geometry" />
        </mxCell>
        <mxCell id="Kp5qe-awLr9j9oZQAhEf-75" style="edgeStyle=orthogonalEdgeStyle;rounded=0;orthogonalLoop=1;jettySize=auto;html=1;exitX=0.5;exitY=1;exitDx=0;exitDy=0;entryX=0;entryY=0.5;entryDx=0;entryDy=0;" edge="1" parent="1" source="Kp5qe-awLr9j9oZQAhEf-41" target="Kp5qe-awLr9j9oZQAhEf-72">
          <mxGeometry relative="1" as="geometry" />
        </mxCell>
        <mxCell id="Kp5qe-awLr9j9oZQAhEf-41" value="Сервис аккаунтов" style="rounded=0;whiteSpace=wrap;html=1;" vertex="1" parent="1">
          <mxGeometry x="840" y="500" width="120" height="80" as="geometry" />
        </mxCell>
        <mxCell id="Kp5qe-awLr9j9oZQAhEf-57" style="edgeStyle=orthogonalEdgeStyle;rounded=0;orthogonalLoop=1;jettySize=auto;html=1;exitX=1;exitY=0.5;exitDx=0;exitDy=0;entryX=0;entryY=0.5;entryDx=0;entryDy=0;" edge="1" parent="1" source="Kp5qe-awLr9j9oZQAhEf-42" target="Kp5qe-awLr9j9oZQAhEf-36">
          <mxGeometry relative="1" as="geometry" />
        </mxCell>
        <mxCell id="Kp5qe-awLr9j9oZQAhEf-63" style="edgeStyle=orthogonalEdgeStyle;rounded=0;orthogonalLoop=1;jettySize=auto;html=1;exitX=0;exitY=0.75;exitDx=0;exitDy=0;entryX=0.75;entryY=0;entryDx=0;entryDy=0;" edge="1" parent="1" source="Kp5qe-awLr9j9oZQAhEf-42" target="Kp5qe-awLr9j9oZQAhEf-40">
          <mxGeometry relative="1" as="geometry" />
        </mxCell>
        <mxCell id="Kp5qe-awLr9j9oZQAhEf-73" value="" style="edgeStyle=orthogonalEdgeStyle;rounded=0;orthogonalLoop=1;jettySize=auto;html=1;" edge="1" parent="1" source="Kp5qe-awLr9j9oZQAhEf-42" target="Kp5qe-awLr9j9oZQAhEf-72">
          <mxGeometry relative="1" as="geometry" />
        </mxCell>
        <mxCell id="Kp5qe-awLr9j9oZQAhEf-76" style="edgeStyle=orthogonalEdgeStyle;rounded=0;orthogonalLoop=1;jettySize=auto;html=1;exitX=1;exitY=0.75;exitDx=0;exitDy=0;entryX=0;entryY=0.25;entryDx=0;entryDy=0;" edge="1" parent="1" source="Kp5qe-awLr9j9oZQAhEf-42" target="Kp5qe-awLr9j9oZQAhEf-35">
          <mxGeometry relative="1" as="geometry" />
        </mxCell>
        <mxCell id="Kp5qe-awLr9j9oZQAhEf-42" value="Сервис ключа" style="rounded=0;whiteSpace=wrap;html=1;" vertex="1" parent="1">
          <mxGeometry x="1440" y="100" width="120" height="320" as="geometry" />
        </mxCell>
        <mxCell id="Kp5qe-awLr9j9oZQAhEf-68" value="Блок логики" style="text;html=1;align=center;verticalAlign=middle;whiteSpace=wrap;rounded=0;fontSize=14;fontStyle=1" vertex="1" parent="1">
          <mxGeometry x="800" y="40" width="800" height="30" as="geometry" />
        </mxCell>
        <mxCell id="Kp5qe-awLr9j9oZQAhEf-69" value="Блок интерфейса" style="text;html=1;align=center;verticalAlign=middle;whiteSpace=wrap;rounded=0;fontSize=14;fontStyle=1" vertex="1" parent="1">
          <mxGeometry x="280" y="40" width="480" height="30" as="geometry" />
        </mxCell>
        <mxCell id="Kp5qe-awLr9j9oZQAhEf-70" value="Блок данных" style="text;html=1;align=center;verticalAlign=middle;whiteSpace=wrap;rounded=0;fontSize=14;fontStyle=1" vertex="1" parent="1">
          <mxGeometry x="1640" y="40" width="200" height="30" as="geometry" />
        </mxCell>
        <mxCell id="Kp5qe-awLr9j9oZQAhEf-71" value="Блок вспомогательной логики" style="text;html=1;align=center;verticalAlign=middle;whiteSpace=wrap;rounded=0;fontSize=14;fontStyle=1" vertex="1" parent="1">
          <mxGeometry x="800" y="890" width="800" height="30" as="geometry" />
        </mxCell>
        <mxCell id="Kp5qe-awLr9j9oZQAhEf-72" value="Хранилище ключа" style="rounded=0;whiteSpace=wrap;html=1;" vertex="1" parent="1">
          <mxGeometry x="1440" y="590" width="120" height="60" as="geometry" />
        </mxCell>
      </root>
    </mxGraphModel>
  </diagram>
</mxfile>
